<?xml version="1.0" encoding="UTF-8" standalone="no"?>
<svg
   width="1258"
   height="934"
   xml:space="preserve"
   overflow="hidden"
   version="1.1"
   id="svg118"
   sodipodi:docname="criteria.svg"
   inkscape:version="1.3 (0e150ed6c4, 2023-07-21)"
   xmlns:inkscape="http://www.inkscape.org/namespaces/inkscape"
   xmlns:sodipodi="http://sodipodi.sourceforge.net/DTD/sodipodi-0.dtd"
   xmlns="http://www.w3.org/2000/svg"
   xmlns:svg="http://www.w3.org/2000/svg"><defs
     id="defs118" /><sodipodi:namedview
     id="namedview118"
     pagecolor="#505050"
     bordercolor="#eeeeee"
     borderopacity="1"
     inkscape:showpageshadow="0"
     inkscape:pageopacity="0"
     inkscape:pagecheckerboard="0"
     inkscape:deskcolor="#505050"
     showgrid="false"
     inkscape:zoom="1.2558887"
     inkscape:cx="628.63853"
     inkscape:cy="467"
     inkscape:window-width="2560"
     inkscape:window-height="1369"
     inkscape:window-x="2552"
     inkscape:window-y="-8"
     inkscape:window-maximized="1"
     inkscape:current-layer="g118" /><g
     transform="translate(-530 -222)"
     id="g118"><path
       d="M1058.92 225.238 1256.92 225.238 1256.92 357.238 1058.92 357.238Z"
       fill="#13501B"
       fill-rule="evenodd"
       id="path1" /><path
       d="M1058.92 357.238 1256.92 357.238 1256.92 423.238 1058.92 423.238Z"
       fill="#FFFFFF"
       fill-rule="evenodd"
       id="path2" /><path
       d="M1058.92 423.238 1256.92 423.238 1256.92 489.238 1058.92 489.238Z"
       fill="#FFFFFF"
       fill-rule="evenodd"
       id="path3" /><path
       d="M1058.92 489.238 1256.92 489.238 1256.92 555.238 1058.92 555.238Z"
       fill="#FFFFFF"
       fill-rule="evenodd"
       id="path4" /><path
       d="M1058.92 555.238 1256.92 555.238 1256.92 621.238 1058.92 621.238Z"
       fill="#FFFFFF"
       fill-rule="evenodd"
       id="path5" /><path
       d="M1058.92 621.238 1256.92 621.238 1256.92 687.238 1058.92 687.238Z"
       fill="#FFFFFF"
       fill-rule="evenodd"
       id="path6" /><path
       d="M1058.92 687.238 1256.92 687.238 1256.92 753.238 1058.92 753.238Z"
       fill="#FFFFFF"
       fill-rule="evenodd"
       id="path7" /><path
       d="M1058.92 753.238 1256.92 753.238 1256.92 819.238 1058.92 819.238Z"
       fill="#FFFFFF"
       fill-rule="evenodd"
       id="path8" /><path
       d="M1058.92 819.238 1256.92 819.238 1256.92 885.238 1058.92 885.238Z"
       fill="#FFFFFF"
       fill-rule="evenodd"
       id="path9" /><path
       d="M1058.92 885.238 1256.92 885.238 1256.92 951.238 1058.92 951.238Z"
       fill="#FFFFFF"
       fill-rule="evenodd"
       id="path10" /><path
       d="M1058.92 951.238 1256.92 951.238 1256.92 1017.24 1058.92 1017.24Z"
       fill="#FFFFFF"
       fill-rule="evenodd"
       id="path11" /><path
       d="M1058.92 1017.24 1256.92 1017.24 1256.92 1083.24 1058.92 1083.24Z"
       fill="#FFFFFF"
       fill-rule="evenodd"
       id="path12" /><path
       d="M1058.92 1083.24 1256.92 1083.24 1256.92 1149.24 1058.92 1149.24Z"
       fill="#FFFFFF"
       fill-rule="evenodd"
       id="path13" /><path
       d="M1056.63 357.238 1259.21 357.238"
       stroke="#196B24"
       stroke-width="9.16667"
       stroke-linejoin="round"
       stroke-miterlimit="10"
       fill="none"
       fill-rule="evenodd"
       id="path14" /><path
       d="M1056.63 423.238 1259.21 423.238"
       stroke="#196B24"
       stroke-width="4.58333"
       stroke-linejoin="round"
       stroke-miterlimit="10"
       fill="none"
       fill-rule="evenodd"
       id="path15" /><path
       d="M1056.63 489.238 1259.21 489.238"
       stroke="#196B24"
       stroke-width="4.58333"
       stroke-linejoin="round"
       stroke-miterlimit="10"
       fill="none"
       fill-rule="evenodd"
       id="path16" /><path
       d="M1056.63 555.238 1259.21 555.238"
       stroke="#196B24"
       stroke-width="4.58333"
       stroke-linejoin="round"
       stroke-miterlimit="10"
       fill="none"
       fill-rule="evenodd"
       id="path17" /><path
       d="M1056.63 621.238 1259.21 621.238"
       stroke="#196B24"
       stroke-width="4.58333"
       stroke-linejoin="round"
       stroke-miterlimit="10"
       fill="none"
       fill-rule="evenodd"
       id="path18" /><path
       d="M1056.63 687.238 1259.21 687.238"
       stroke="#196B24"
       stroke-width="4.58333"
       stroke-linejoin="round"
       stroke-miterlimit="10"
       fill="none"
       fill-rule="evenodd"
       id="path19" /><path
       d="M1056.63 753.238 1259.21 753.238"
       stroke="#196B24"
       stroke-width="4.58333"
       stroke-linejoin="round"
       stroke-miterlimit="10"
       fill="none"
       fill-rule="evenodd"
       id="path20" /><path
       d="M1056.63 819.238 1259.21 819.238"
       stroke="#196B24"
       stroke-width="4.58333"
       stroke-linejoin="round"
       stroke-miterlimit="10"
       fill="none"
       fill-rule="evenodd"
       id="path21" /><path
       d="M1056.63 885.238 1259.21 885.238"
       stroke="#196B24"
       stroke-width="4.58333"
       stroke-linejoin="round"
       stroke-miterlimit="10"
       fill="none"
       fill-rule="evenodd"
       id="path22" /><path
       d="M1056.63 951.238 1259.21 951.238"
       stroke="#196B24"
       stroke-width="4.58333"
       stroke-linejoin="round"
       stroke-miterlimit="10"
       fill="none"
       fill-rule="evenodd"
       id="path23" /><path
       d="M1056.63 1017.24 1259.21 1017.24"
       stroke="#196B24"
       stroke-width="4.58333"
       stroke-linejoin="round"
       stroke-miterlimit="10"
       fill="none"
       fill-rule="evenodd"
       id="path24" /><path
       d="M1056.63 1083.24 1259.21 1083.24"
       stroke="#196B24"
       stroke-width="4.58333"
       stroke-linejoin="round"
       stroke-miterlimit="10"
       fill="none"
       fill-rule="evenodd"
       id="path25" /><path
       d="M1058.92 222.946 1058.92 1151.53"
       stroke="#196B24"
       stroke-width="4.58333"
       stroke-linejoin="round"
       stroke-miterlimit="10"
       fill="none"
       fill-rule="evenodd"
       id="path26" /><path
       d="M1256.92 222.946 1256.92 1151.53"
       stroke="#196B24"
       stroke-width="4.58333"
       stroke-linejoin="round"
       stroke-miterlimit="10"
       fill="none"
       fill-rule="evenodd"
       id="path27" /><path
       d="M1056.63 225.238 1259.21 225.238"
       stroke="#196B24"
       stroke-width="4.58333"
       stroke-linejoin="round"
       stroke-miterlimit="10"
       fill="none"
       fill-rule="evenodd"
       id="path28" /><path
       d="M1056.63 1149.24 1259.21 1149.24"
       stroke="#196B24"
       stroke-width="4.58333"
       stroke-linejoin="round"
       stroke-miterlimit="10"
       fill="none"
       fill-rule="evenodd"
       id="path29" /><text
       fill="#f2f2f2"
       font-family="Aptos, Aptos_MSFontService, sans-serif"
       font-weight="700"
       font-size="32px"
       id="text29"
       x="1078.6"
       y="310">Diseases</text><text
       fill="#f2f2f2"
       font-family="Aptos, Aptos_MSFontService, sans-serif"
       font-weight="700"
       font-size="32px"
       transform="translate(1208.62,302)"
       id="text30" /><text
       font-family="Aptos,Aptos_MSFontService,sans-serif"
       font-weight="400"
       font-size="32"
       transform="matrix(1 0 0 1 1117.24 401)"
       id="text31">BRVO</text><text
       font-family="Aptos,Aptos_MSFontService,sans-serif"
       font-weight="400"
       font-size="32"
       transform="matrix(1 0 0 1 1115.81 467)"
       id="text32">CRVO</text><text
       font-family="Aptos,Aptos_MSFontService,sans-serif"
       font-weight="400"
       font-size="32"
       transform="matrix(1 0 0 1 1126.41 533)"
       id="text33">CSC</text><text
       font-family="Aptos,Aptos_MSFontService,sans-serif"
       font-weight="400"
       font-size="32"
       transform="matrix(1 0 0 1 1116.1 599)"
       id="text34">dAMD</text><text
       font-family="Aptos,Aptos_MSFontService,sans-serif"
       font-weight="400"
       font-size="32"
       transform="matrix(1 0 0 1 1126.7 665)"
       id="text35">ERM</text><text
       font-family="Aptos,Aptos_MSFontService,sans-serif"
       font-weight="400"
       font-size="32"
       transform="matrix(1 0 0 1 1110.37 731)"
       id="text36">Mactel</text><text
       font-family="Aptos,Aptos_MSFontService,sans-serif"
       font-weight="400"
       font-size="32"
       transform="matrix(1 0 0 1 1133.86 797)"
       id="text37">MH</text><text
       font-family="Aptos,Aptos_MSFontService,sans-serif"
       font-weight="400"
       font-size="32"
       transform="matrix(1 0 0 1 1123.55 863)"
       id="text38">mDR</text><text
       font-family="Aptos,Aptos_MSFontService,sans-serif"
       font-weight="400"
       font-size="32"
       transform="matrix(1 0 0 1 1131.85 929)"
       id="text39">rDR</text><text
       font-family="Aptos,Aptos_MSFontService,sans-serif"
       font-weight="400"
       font-size="32"
       transform="matrix(1 0 0 1 1139.02 995)"
       id="text40">RP</text><text
       font-family="Aptos,Aptos_MSFontService,sans-serif"
       font-weight="400"
       font-size="32"
       transform="matrix(1 0 0 1 1141.02 1061)"
       id="text41">ST</text><text
       font-family="Aptos,Aptos_MSFontService,sans-serif"
       font-weight="400"
       font-size="32"
       transform="matrix(1 0 0 1 1113.52 1127)"
       id="text42">wAMD</text><path
       d="M533.156 266.488 760.031 266.488 760.031 398.488 533.156 398.488Z"
       fill-rule="evenodd"
       id="path42" /><path
       d="M530.864 398.488 762.323 398.488"
       stroke="#000000"
       stroke-width="4.58333"
       stroke-miterlimit="8"
       fill="none"
       fill-rule="evenodd"
       id="path43" /><path
       d="M530.864 464.488 762.323 464.488"
       stroke="#000000"
       stroke-width="4.58333"
       stroke-miterlimit="8"
       fill="none"
       fill-rule="evenodd"
       id="path44" /><path
       d="M530.864 530.488 762.323 530.488"
       stroke="#000000"
       stroke-width="4.58333"
       stroke-miterlimit="8"
       fill="none"
       fill-rule="evenodd"
       id="path45" /><path
       d="M530.864 596.488 762.323 596.488"
       stroke="#000000"
       stroke-width="4.58333"
       stroke-miterlimit="8"
       fill="none"
       fill-rule="evenodd"
       id="path46" /><path
       d="M530.864 662.488 762.323 662.488"
       stroke="#000000"
       stroke-width="4.58333"
       stroke-miterlimit="8"
       fill="none"
       fill-rule="evenodd"
       id="path47" /><path
       d="M530.864 728.488 762.323 728.488"
       stroke="#000000"
       stroke-width="4.58333"
       stroke-miterlimit="8"
       fill="none"
       fill-rule="evenodd"
       id="path48" /><path
       d="M530.864 794.488 762.323 794.488"
       stroke="#000000"
       stroke-width="4.58333"
       stroke-miterlimit="8"
       fill="none"
       fill-rule="evenodd"
       id="path49" /><path
       d="M530.864 860.488 762.323 860.488"
       stroke="#000000"
       stroke-width="4.58333"
       stroke-miterlimit="8"
       fill="none"
       fill-rule="evenodd"
       id="path50" /><path
       d="M530.864 926.488 762.323 926.488"
       stroke="#000000"
       stroke-width="4.58333"
       stroke-miterlimit="8"
       fill="none"
       fill-rule="evenodd"
       id="path51" /><path
       d="M530.864 992.488 762.323 992.488"
       stroke="#000000"
       stroke-width="4.58333"
       stroke-miterlimit="8"
       fill="none"
       fill-rule="evenodd"
       id="path52" /><path
       d="M530.864 1058.49 762.323 1058.49"
       stroke="#000000"
       stroke-width="4.58333"
       stroke-miterlimit="8"
       fill="none"
       fill-rule="evenodd"
       id="path53" /><path
       d="M533.156 264.196 533.156 1126.78"
       stroke="#000000"
       stroke-width="4.58333"
       stroke-miterlimit="8"
       fill="none"
       fill-rule="evenodd"
       id="path54" /><path
       d="M760.031 264.196 760.031 1126.78"
       stroke="#000000"
       stroke-width="4.58333"
       stroke-miterlimit="8"
       fill="none"
       fill-rule="evenodd"
       id="path55" /><path
       d="M530.864 266.488 762.323 266.488"
       stroke="#000000"
       stroke-width="4.58333"
       stroke-miterlimit="8"
       fill="none"
       fill-rule="evenodd"
       id="path56" /><path
       d="M530.864 1124.49 762.323 1124.49"
       stroke="#000000"
       stroke-width="4.58333"
       stroke-miterlimit="8"
       fill="none"
       fill-rule="evenodd"
       id="path57" /><text
       fill="#F2F2F2"
       font-family="Aptos,Aptos_MSFontService,sans-serif"
       font-weight="700"
       font-size="32"
       transform="matrix(1 0 0 1 615.369 324)"
       id="text57">OCT </text><text
       fill="#f2f2f2"
       font-family="Aptos, Aptos_MSFontService, sans-serif"
       font-weight="700"
       font-size="32px"
       id="text58"
       x="536.93201"
       y="362">Abnormities</text><text
       font-family="Aptos,Aptos_MSFontService,sans-serif"
       font-weight="400"
       font-size="32"
       transform="matrix(1 0 0 1 614.51 442)"
       id="text59">CNV</text><text
       font-family="Aptos,Aptos_MSFontService,sans-serif"
       font-weight="400"
       font-size="32"
       transform="matrix(1 0 0 1 615.083 508)"
       id="text60">CSC</text><text
       font-family="Aptos,Aptos_MSFontService,sans-serif"
       font-weight="400"
       font-size="32"
       transform="matrix(1 0 0 1 614.223 574)"
       id="text61">DME</text><text
       font-family="Aptos,Aptos_MSFontService,sans-serif"
       font-weight="400"
       font-size="32"
       transform="matrix(1 0 0 1 596.177 640)"
       id="text62">Drusen</text><text
       font-family="Aptos,Aptos_MSFontService,sans-serif"
       font-weight="400"
       font-size="32"
       transform="matrix(1 0 0 1 615.369 706)"
       id="text63">ERM</text><text
       font-family="Aptos,Aptos_MSFontService,sans-serif"
       font-weight="400"
       font-size="32"
       transform="matrix(1 0 0 1 633.989 772)"
       id="text64">IF</text><text
       font-family="Aptos,Aptos_MSFontService,sans-serif"
       font-weight="400"
       font-size="32"
       transform="matrix(1 0 0 1 622.531 838)"
       id="text65">MH</text><text
       font-family="Aptos,Aptos_MSFontService,sans-serif"
       font-weight="400"
       font-size="32"
       transform="matrix(1 0 0 1 599.041 904)"
       id="text66">Mactel</text><text
       font-family="Aptos,Aptos_MSFontService,sans-serif"
       font-weight="400"
       font-size="32"
       transform="matrix(1 0 0 1 627.687 970)"
       id="text67">RP</text><text
       font-family="Aptos,Aptos_MSFontService,sans-serif"
       font-weight="400"
       font-size="32"
       transform="matrix(1 0 0 1 629.692 1036)"
       id="text68">ST</text><text
       font-family="Aptos,Aptos_MSFontService,sans-serif"
       font-weight="400"
       font-size="32"
       transform="matrix(1 0 0 1 629.119 1102)"
       id="text69">SF</text><path
       d="M1555.81 357.238 1782.69 357.238 1782.69 489.238 1555.81 489.238Z"
       fill="#E97132"
       fill-rule="evenodd"
       id="path69" /><path
       d="M1553.52 489.238 1784.98 489.238"
       stroke="#E97132"
       stroke-width="4.58333"
       stroke-miterlimit="8"
       fill="none"
       fill-rule="evenodd"
       id="path70" /><path
       d="M1553.52 555.238 1784.98 555.238"
       stroke="#E97132"
       stroke-width="4.58333"
       stroke-miterlimit="8"
       fill="none"
       fill-rule="evenodd"
       id="path71" /><path
       d="M1553.52 621.238 1784.98 621.238"
       stroke="#E97132"
       stroke-width="4.58333"
       stroke-miterlimit="8"
       fill="none"
       fill-rule="evenodd"
       id="path72" /><path
       d="M1553.52 687.238 1784.98 687.238"
       stroke="#E97132"
       stroke-width="4.58333"
       stroke-miterlimit="8"
       fill="none"
       fill-rule="evenodd"
       id="path73" /><path
       d="M1553.52 753.238 1784.98 753.238"
       stroke="#E97132"
       stroke-width="4.58333"
       stroke-miterlimit="8"
       fill="none"
       fill-rule="evenodd"
       id="path74" /><path
       d="M1553.52 819.238 1784.98 819.238"
       stroke="#E97132"
       stroke-width="4.58333"
       stroke-miterlimit="8"
       fill="none"
       fill-rule="evenodd"
       id="path75" /><path
       d="M1553.52 885.238 1784.98 885.238"
       stroke="#E97132"
       stroke-width="4.58333"
       stroke-miterlimit="8"
       fill="none"
       fill-rule="evenodd"
       id="path76" /><path
       d="M1553.52 951.238 1784.98 951.238"
       stroke="#E97132"
       stroke-width="4.58333"
       stroke-miterlimit="8"
       fill="none"
       fill-rule="evenodd"
       id="path77" /><path
       d="M1555.81 354.946 1555.81 1019.53"
       stroke="#E97132"
       stroke-width="4.58333"
       stroke-miterlimit="8"
       fill="none"
       fill-rule="evenodd"
       id="path78" /><path
       d="M1782.69 354.946 1782.69 1019.53"
       stroke="#E97132"
       stroke-width="4.58333"
       stroke-miterlimit="8"
       fill="none"
       fill-rule="evenodd"
       id="path79" /><path
       d="M1553.52 357.238 1784.98 357.238"
       stroke="#E97132"
       stroke-width="4.58333"
       stroke-miterlimit="8"
       fill="none"
       fill-rule="evenodd"
       id="path80" /><path
       d="M1553.52 1017.24 1784.98 1017.24"
       stroke="#E97132"
       stroke-width="4.58333"
       stroke-miterlimit="8"
       fill="none"
       fill-rule="evenodd"
       id="path81" /><text
       fill="#F2F2F2"
       font-family="Aptos,Aptos_MSFontService,sans-serif"
       font-weight="700"
       font-size="32"
       transform="matrix(1 0 0 1 1617.97 415)"
       id="text81">fundus </text><text
       fill="#f2f2f2"
       font-family="Aptos, Aptos_MSFontService, sans-serif"
       font-weight="700"
       font-size="32px"
       id="text82"
       x="1559.59"
       y="453">Abnormities</text><text
       font-family="Aptos,Aptos_MSFontService,sans-serif"
       font-weight="400"
       font-size="32"
       transform="matrix(1 0 0 1 1634.59 533)"
       id="text83">CWP</text><text
       font-family="Aptos,Aptos_MSFontService,sans-serif"
       font-weight="400"
       font-size="32"
       transform="matrix(1 0 0 1 1618.83 599)"
       id="text84">Drusen</text><text
       font-family="Aptos,Aptos_MSFontService,sans-serif"
       font-weight="400"
       font-size="32"
       transform="matrix(1 0 0 1 1648.91 665)"
       id="text85">HE</text><text
       font-family="Aptos,Aptos_MSFontService,sans-serif"
       font-weight="400"
       font-size="32"
       transform="matrix(1 0 0 1 1645.19 731)"
       id="text86">HM</text><text
       font-family="Aptos,Aptos_MSFontService,sans-serif"
       font-weight="400"
       font-size="32"
       transform="matrix(1 0 0 1 1645.19 797)"
       id="text87">MH</text><text
       font-family="Aptos,Aptos_MSFontService,sans-serif"
       font-weight="400"
       font-size="32"
       transform="matrix(1 0 0 1 1647.19 863)"
       id="text88">MA</text><text
       font-family="Aptos,Aptos_MSFontService,sans-serif"
       font-weight="400"
       font-size="32"
       transform="matrix(1 0 0 1 1650.34 929)"
       id="text89">RP</text><text
       font-family="Aptos,Aptos_MSFontService,sans-serif"
       font-weight="400"
       font-size="32"
       transform="matrix(1 0 0 1 1650.34 995)"
       id="text90">VA</text><path
       d="M1555.96 717.602 1266.28 396.098 1267.13 395.331 1556.82 716.835ZM1262.96 405.256 1257.5 385.5 1276.58 392.984Z"
       fill="#156082"
       id="path90" /><path
       d="M1555.88 985.599 1263.12 398.061 1264.14 397.55 1556.9 985.088ZM1257.47 405.997 1257.5 385.5 1273.88 397.821Z"
       fill="#156082"
       id="path91" /><path
       d="M1556.15 521.803 1269.78 391.708 1270.26 390.665 1556.63 520.76ZM1270.4 401.428 1257.5 385.5 1277.98 384.737Z"
       fill="#156082"
       id="path92" /><path
       d="M1556.01 717.758 1267.43 463.029 1268.19 462.17 1556.77 716.899ZM1265.18 472.505 1257.5 453.5 1277.31 458.76Z"
       fill="#156082"
       id="path93" /><path
       d="M1555.89 981.439 1263.78 465.745 1264.77 465.18 1556.89 980.874ZM1258.56 473.97 1257.5 453.5 1274.51 464.934Z"
       fill="#156082"
       id="path94" /><path
       d="M760.559 489.93 1044.83 519.448 1044.71 520.587 760.441 491.07ZM1041.16 510.426 1058.45 521.438 1039.26 528.662Z"
       fill="#156082"
       id="path95" /><path
       d="M0.507871-0.265142 292.09 558.252 291.074 558.782-0.507871 0.265142ZM297.587 550.212 297.946 570.707 281.335 558.697Z"
       fill="#156082"
       transform="matrix(1 0 0 -1 760.5 1090.21)"
       id="path96" /><path
       d="M0.0903181-0.565753 285.404 44.9824 285.223 46.1139-0.0903181 0.565753ZM282.232 35.7735 298.891 47.7157 279.342 53.8776Z"
       fill="#156082"
       transform="matrix(1 0 0 -1 759.5 633.216)"
       id="path97" /><path
       d="M6.91763e-07-0.572917 285.14-0.572572 285.14 0.573261-6.91763e-07 0.572917ZM280.557-9.16633 298.89 0.000360892 280.557 9.16701Z"
       fill="#156082"
       transform="matrix(-1 0 0 1 1556.39 581.5)"
       id="path98" /><path
       d="M0.0832881-0.56683 280.64 40.6572 280.474 41.7909-0.0832881 0.56683ZM277.355 31.4885 294.161 43.223 274.69 49.6271Z"
       fill="#156082"
       transform="matrix(1 0 0 -1 763.5 695.723)"
       id="path99" /><path
       d="M0.281002-0.499271 286.756 160.736 286.194 161.735-0.281002 0.499271ZM286.977 150.999 298.457 167.979 277.985 166.975Z"
       fill="#156082"
       transform="matrix(1 0 0 -1 759.5 893.479)"
       id="path100" /><path
       d="M0.0721925-0.56835 282.312 35.2821 282.167 36.4188-0.0721925 0.56835ZM278.847 26.1792 295.879 37.583 276.537 44.3664Z"
       fill="#156082"
       transform="matrix(1 0 0 -1 762.5 764.083)"
       id="path101" /><path
       d="M0.0721925-0.56835 282.312 35.2821 282.167 36.4188-0.0721925 0.56835ZM278.847 26.1792 295.879 37.583 276.537 44.3664Z"
       fill="#156082"
       transform="matrix(1 0 0 -1 762.5 829.083)"
       id="path102" /><path
       d="M6.91763e-07-0.572917 285.14-0.572572 285.14 0.573261-6.91763e-07 0.572917ZM280.557-9.16633 298.89 0.000360892 280.557 9.16701Z"
       fill="#156082"
       transform="matrix(-1 0 0 1 1556.39 791.5)"
       id="path103" /><path
       d="M0.235716-0.522179 286.594 128.742 286.122 129.787-0.235716 0.522179ZM285.952 119.024 298.89 134.922 278.409 135.734Z"
       fill="#156082"
       transform="matrix(-1 0 0 1 1556.39 717.5)"
       id="path104" /><path
       d="M0.321327-0.474323 287.828 194.295 287.185 195.244-0.321327 0.474323ZM288.853 184.61 298.89 202.481 278.571 199.788Z"
       fill="#156082"
       transform="matrix(-1 0 0 1 1557.39 649.5)"
       id="path105" /><path
       d="M0.00529564-0.572892 286.529 2.07564 286.518 3.22142-0.00529564 0.572892ZM282.024-6.56011 300.272 2.77562 281.855 11.7724Z"
       fill="#156082"
       transform="matrix(-1 0 0 1 1554.77 846.5)"
       id="path106" /><path
       d="M762.945 558.139 1049.21 911.34 1048.32 912.061 762.055 558.861ZM1053 902.368 1057.42 922.383 1038.76 913.912Z"
       fill="#156082"
       id="path107" /><path
       d="M0.320048-0.475187 285.737 191.758 285.097 192.709-0.320048 0.475187ZM286.736 182.07 296.821 199.915 276.494 197.276Z"
       fill="#156082"
       transform="matrix(-1 0 0 1 1555.32 718.5)"
       id="path108" /><path
       d="M1557.21 985.771 1270.8 922.045 1271.05 920.927 1557.46 984.652ZM1273.4 931.43 1257.5 918.5 1277.39 913.534Z"
       fill="#156082"
       id="path109" /><path
       d="M0.131479-0.557626 286.411 66.9424 286.148 68.0576-0.131479 0.557626ZM283.922 57.5262 299.662 70.6555 279.715 75.3702Z"
       fill="#156082"
       transform="matrix(-1 0 0 1 1555.16 847.5)"
       id="path110" /><path
       d="M0.460096-0.341388 288.478 387.826 287.558 388.509-0.460096 0.341388ZM292.648 379.025 296.211 399.21 277.925 389.949Z"
       fill="#156082"
       transform="matrix(-1 0 0 1 1554.71 523.5)"
       id="path111" /><path
       d="M0.137834-0.556089 283.081 69.575 282.805 70.6872-0.137834 0.556089ZM280.7 60.131 296.289 73.4391 276.289 77.9258Z"
       fill="#156082"
       transform="matrix(-1 0 0 1 1554.79 914.5)"
       id="path112" /><path
       d="M761.552 958.929 1043.99 984.93 1043.89 986.071 761.447 960.07ZM1040.21 975.953 1057.63 986.761 1038.53 994.209Z"
       fill="#156082"
       id="path113" /><path
       d="M759.552 1023.93 1041.99 1049.93 1041.89 1051.07 759.447 1025.07ZM1038.21 1040.95 1055.63 1051.76 1036.53 1059.21Z"
       fill="#156082"
       id="path114" /><path
       d="M760.026 432.273 1050.24 1103.89 1049.18 1104.34 758.974 432.727ZM1056.3 1096.27 1055.16 1116.73 1039.48 1103.54Z"
       fill="#156082"
       id="path115" /><path
       d="M762.544 1089.93 1044.29 1111.85 1044.2 1113 762.456 1091.07ZM1040.39 1102.93 1057.96 1113.49 1038.97 1121.21Z"
       fill="#156082"
       id="path116" /><path
       d="M762.94 765.133 1047.14 1106.07 1046.26 1106.81 762.06 765.867ZM1050.81 1097.05 1055.51 1117 1036.73 1108.79Z"
       fill="#156082"
       id="path117" /><path
       d="M0.458261-0.343847 291.099 387.006 290.182 387.694-0.458261 0.343847ZM295.222 378.182 298.893 398.348 280.557 389.185Z"
       fill="#156082"
       transform="matrix(-1 0 0 1 1556.39 718.5)"
       id="path118" /></g></svg>
